<svg width="87" height="21" viewBox="0 0 87 21" fill="none" xmlns="http://www.w3.org/2000/svg">
<g clip-path="url(#clip0_337_1252)">
<path d="M34.3035 0.269043H0V20.9837H34.3035V0.269043Z" fill="#181818"/>
<path fill-rule="evenodd" clip-rule="evenodd" d="M15.1451 5.67683H15.831L18.8708 9.89663L21.9779 5.67683L26.2038 0.31665L19.2609 10.3401L22.8386 15.2722H22.1259L18.8708 10.7836L15.6024 15.2722H14.9029L18.5076 10.3401L15.1451 5.67683ZM8.11047 5.67683H14.5667V6.1875H8.70231V10.031H14.217V10.5417H8.70231V14.7615H14.6339V15.2722H8.11047V5.67683ZM23.0941 5.67683V6.1875H26.4703V15.2722H27.0621V6.1875H30.4515V5.67683H23.0941Z" fill="white"/>
<path d="M0.0335693 5.67676H0.773338L10.9743 20.8683L6.75877 15.2722L0.652289 6.40247L0.625388 15.2722H0.0335693V5.67676Z" fill="white"/>
<path fill-rule="evenodd" clip-rule="evenodd" d="M33.4638 14.6334C33.0031 14.6334 32.6937 14.3967 32.6707 14.0266H32.9902C33.0175 14.2231 33.2104 14.3479 33.4881 14.3479C33.7473 14.3479 33.9374 14.2145 33.9374 14.0309C33.9374 13.8731 33.8164 13.7785 33.5415 13.7139L33.2737 13.6494C32.898 13.5619 32.7268 13.3811 32.7268 13.0771C32.7268 12.7084 33.0291 12.4631 33.4825 12.4631C33.9042 12.4631 34.2123 12.7084 34.2308 13.057H33.9172C33.8869 12.8662 33.72 12.7472 33.4782 12.7472C33.2233 12.7472 33.0534 12.8691 33.0534 13.0555C33.0534 13.2033 33.1628 13.2879 33.4334 13.351L33.6623 13.407C34.0885 13.5059 34.264 13.6781 34.264 13.9893C34.264 14.3852 33.956 14.6334 33.4638 14.6334ZM30.9735 14.0453C30.9735 14.401 31.2312 14.6334 31.6069 14.6334C32.0069 14.6334 32.2489 14.3938 32.2489 13.9779V12.5133H31.9264V13.9764C31.9264 14.2073 31.8098 14.3307 31.6039 14.3307C31.4198 14.3307 31.2945 14.216 31.2902 14.0453H30.9735ZM30.392 14.6076C30.5143 14.6076 30.6036 14.5143 30.6036 14.3938C30.6036 14.2733 30.5143 14.1801 30.392 14.1801C30.271 14.1801 30.1804 14.2733 30.1804 14.3938C30.1804 14.5143 30.271 14.6076 30.392 14.6076Z" fill="white"/>
<path d="M61.337 0H38.7391V20.7147H61.337V0Z" fill="#181818"/>
<path d="M50.0379 12.0589C50.5498 12.0589 51.0408 11.8556 51.4028 11.4936C51.7648 11.1316 51.9681 10.6406 51.9681 10.1287C51.9681 9.61677 51.7648 9.12579 51.4028 8.76381C51.0408 8.40182 50.5498 8.19849 50.0379 8.19849C49.526 8.19849 49.035 8.40182 48.673 8.76381C48.311 9.12579 48.1077 9.61677 48.1077 10.1287C48.1077 10.6406 48.311 11.1316 48.673 11.4936C49.035 11.8556 49.526 12.0589 50.0379 12.0589Z" stroke="white" stroke-width="0.941577"/>
<path d="M50.0381 14.0831C55.7582 14.0831 60.3956 12.3129 60.3956 10.1284C60.3956 7.94397 55.7582 6.17383 50.0381 6.17383C44.3181 6.17383 39.6808 7.94397 39.6808 10.1284C39.6808 12.3129 44.3181 14.0831 50.0381 14.0831Z" stroke="white" stroke-width="0.941577"/>
<path d="M46.6136 12.106C49.4732 17.0597 53.3253 20.1904 55.2169 19.0982C57.1085 18.0059 56.3231 13.105 53.4624 8.15143C50.6031 3.19778 46.752 0.0670378 44.8594 1.15926C42.9678 2.25056 43.7531 7.15241 46.6136 12.106Z" stroke="white" stroke-width="0.941577"/>
<path d="M46.6136 8.15119C43.7531 13.1048 42.9669 18.0067 44.8595 19.098C46.7511 20.1902 50.6031 17.0594 53.4624 12.1058C56.3232 7.15217 57.1096 2.25129 55.217 1.15906C53.3254 0.065891 49.4732 3.19757 46.6136 8.15119Z" stroke="white" stroke-width="0.941577"/>
<path d="M86.625 0H65.6414V20.9837H86.625V0Z" fill="#181818"/>
<path d="M76.133 20.9837C81.9279 20.9837 86.6251 16.2863 86.6251 10.4919C86.6251 4.69736 81.9279 0 76.133 0C70.3385 0 65.6414 4.69736 65.6414 10.4919C65.6414 16.2863 70.3385 20.9837 76.133 20.9837Z" fill="#181818"/>
<path d="M70.2875 16.3374C68.7141 14.7636 67.8893 12.6652 67.8893 10.6417L76.0583 18.7355C73.9599 18.6605 71.8614 17.9111 70.2875 16.3374ZM77.9315 18.5107L68.1145 8.69326C68.9388 5.02114 72.2363 2.24829 76.1334 2.24829C78.9059 2.24829 81.3041 3.59724 82.803 5.6207L81.6789 6.59494C80.4048 4.87125 78.3814 3.74713 76.1334 3.74713C73.2102 3.74713 70.7374 5.6207 69.763 8.24365L78.3814 16.8619C80.5549 16.1125 82.2034 14.239 82.7279 11.9907H79.1306V10.4919H84.3769C84.3769 14.3889 81.6039 17.6863 77.9315 18.5107Z" fill="white"/>
</g>
<defs>
<clipPath id="clip0_337_1252">
<rect width="86.625" height="21" fill="white"/>
</clipPath>
</defs>
</svg>
