<svg width="34" height="34" viewBox="0 0 34 34" fill="none" xmlns="http://www.w3.org/2000/svg">
<path d="M15.8865 0.00929482C15.8135 0.0163782 15.5812 0.0390448 15.3715 0.0560448C10.5421 0.490961 6.01871 3.0955 3.15421 7.10042C1.5704 9.29854 0.540818 11.8466 0.153 14.528C0.0162917 15.4616 0 15.7371 0 17.0036C0 18.2694 0.0162917 18.5457 0.153 19.4793C1.07667 25.8628 5.61992 31.2262 11.7817 33.2138C12.8853 33.5687 14.0484 33.8117 15.3715 33.9576C15.8865 34.0142 18.1128 34.0142 18.6285 33.9576C20.9121 33.7054 22.8459 33.1402 24.7541 32.1662C25.046 32.0175 25.1026 31.9771 25.063 31.9438C25.036 31.924 23.7901 30.2523 22.2941 28.2321L19.5755 24.5601L16.1691 19.5189C14.2949 16.7472 12.7521 14.4813 12.7394 14.4813C12.7259 14.4777 12.7125 16.7175 12.7061 19.4523C12.6962 24.2407 12.6926 24.434 12.6331 24.5467C12.5467 24.7096 12.4801 24.7762 12.3406 24.8491C12.2343 24.9023 12.1408 24.9129 11.6393 24.9129H11.0642L10.9112 24.8158C10.8166 24.7565 10.7398 24.6728 10.6888 24.5736L10.6186 24.4241L10.6257 17.7608L10.6356 11.0954L10.7383 10.9651C10.7915 10.8957 10.9048 10.8057 10.9841 10.7625C11.1208 10.6959 11.174 10.6895 11.7491 10.6895C12.427 10.6895 12.5396 10.7165 12.716 10.9091C12.7656 10.9623 14.6101 13.7403 16.8172 17.0865C19.0244 20.4327 22.0419 25.0021 23.5245 27.2454L26.2161 31.3226L26.3521 31.2326C27.5591 30.4485 28.8348 29.3322 29.8456 28.1691C31.9878 25.7178 33.3774 22.7005 33.8477 19.4793C33.9837 18.545 34 18.2694 34 17.0036C34 15.7371 33.9837 15.4616 33.847 14.528C32.9233 8.14379 28.3801 2.781 22.2183 0.79342C21.131 0.441378 19.9743 0.19842 18.678 0.0525032C18.3593 0.0192115 16.162 -0.0176218 15.8865 0.00929482ZM22.8459 10.2908C22.925 10.3307 22.9954 10.386 23.053 10.4534C23.1107 10.5207 23.1544 10.5988 23.1816 10.6832C23.2085 10.7696 23.2149 12.6169 23.2085 16.7805L23.1986 22.756L22.1446 21.141L21.0878 19.526V15.1825C21.0878 12.3747 21.1013 10.7958 21.1211 10.72C21.1448 10.6315 21.1862 10.5487 21.2428 10.4766C21.2994 10.4045 21.3701 10.3447 21.4505 10.3007C21.5865 10.2313 21.636 10.2242 22.1588 10.2242C22.6504 10.2242 22.7368 10.2313 22.8459 10.2908Z" fill="black"/>
</svg>
